<?xml version="1.0" encoding="UTF-8"?>
<svg version="1.1" xmlns="http://www.w3.org/2000/svg" width="260" height="359">
<path d="M0 0 C0.71544983 0.00337372 1.43089966 0.00674744 2.16802979 0.01022339 C37.34784439 0.249319 67.23544213 13.44486313 92.75 37.4375 C93.34039062 37.9634375 93.93078125 38.489375 94.5390625 39.03125 C114.11179579 57.21255675 125.1506591 83.62954235 129.75 109.4375 C129.94207031 110.51257813 130.13414062 111.58765625 130.33203125 112.6953125 C135.29606206 157.13962577 115.55088249 191.34909031 92.93945312 227.88916016 C89.69560426 233.13689143 86.50312986 238.41578612 83.30709839 243.69271851 C81.54661372 246.59846608 79.782968 249.50229339 78.01953125 252.40625 C77.66991837 252.98211349 77.32030548 253.55797699 76.96009827 254.15129089 C74.78585242 257.73244758 72.61039374 261.31286503 70.43417358 264.89282227 C60.55504142 281.1427735 60.55504142 281.1427735 50.75 297.4375 C44.46086364 307.94170752 38.12373724 318.41651492 31.74609375 328.8671875 C29.37581035 332.75189581 27.02791438 336.64670459 24.72265625 340.5703125 C20.06105727 348.42511978 15.82277785 355.41324072 6.75 358.4375 C0.24390504 358.92569183 -5.72966944 359.34212405 -11.25 355.4375 C-14.91014656 352.03879248 -17.65162219 348.5944652 -20.3125 344.375 C-20.88484375 343.46935303 -20.88484375 343.46935303 -21.46875 342.54541016 C-25.69595402 335.81125807 -29.7581322 328.97590876 -33.83203125 322.1484375 C-37.66846141 315.72533194 -41.55157486 309.33072183 -45.4375 302.9375 C-46.16471821 301.74072549 -46.89193172 300.54394813 -47.61914062 299.34716797 C-49.09403877 296.92012608 -50.56918008 294.49323215 -52.04443359 292.06640625 C-54.9106001 287.35112555 -57.77412311 282.634241 -60.63745117 277.91723633 C-62.04466212 275.59905877 -63.45240773 273.28120722 -64.8605957 270.96362305 C-68.11031431 265.61452496 -71.35688996 260.26360657 -74.59141541 254.90530396 C-84.13402616 239.05117486 -84.13402616 239.05117486 -94.0625 223.4375 C-107.82604216 202.35738512 -121.78943998 180.32933396 -127.25 155.4375 C-127.43111328 154.63884521 -127.61222656 153.84019043 -127.79882812 153.01733398 C-129.38133605 145.34202976 -129.63649839 137.82140789 -129.625 130 C-129.62412384 129.34309174 -129.62324768 128.68618347 -129.62234497 128.0093689 C-129.46938276 93.07099993 -115.3975585 61.5494296 -91.0625 36.6875 C-66.7280705 12.71235402 -34.06188866 -0.31495343 0 0 Z " fill="#263A79" transform="translate(129.25,0.5625)"/>
<path d="M0 0 C22.22403978 -0.97927225 44.01809993 5.2370379 61.01123047 20.21386719 C74.11431344 32.22152784 85.01246534 46.34685177 89 64 C87.94683594 63.95359375 86.89367187 63.9071875 85.80859375 63.859375 C69.65385347 63.16453596 69.65385347 63.16453596 55.40185547 69.43310547 C51.70272546 73.54571575 49.0114776 78.09604249 46.5 83 C45.92536011 84.10758667 45.92536011 84.10758667 45.33911133 85.23754883 C41.72669811 92.32364039 38.66862394 99.50514129 36 107 C35.37931641 108.72476563 35.37931641 108.72476563 34.74609375 110.484375 C28.18519548 130.69285608 33.73911364 148.70725758 43.02148438 167.01464844 C43.35986328 167.66723633 43.69824219 168.31982422 44.046875 168.9921875 C44.37397461 169.62527832 44.70107422 170.25836914 45.03808594 170.91064453 C45.94835033 172.6512364 46.87981576 174.38069301 47.8125 176.109375 C49.12810498 179.31183448 49.09006446 179.87035412 48 183 C47.22416695 184.48664161 46.39294506 185.94503848 45.5234375 187.37890625 C45.02070313 188.21317139 44.51796875 189.04743652 44 189.90698242 C43.46375 190.78330322 42.9275 191.65962402 42.375 192.5625 C41.83101563 193.45622314 41.28703125 194.34994629 40.7265625 195.27075195 C39.64535073 197.04364964 38.56174716 198.8150912 37.47558594 200.58496094 C36.23029057 202.6230916 35.00421942 204.67041042 33.7890625 206.7265625 C33.19867188 207.70367187 32.60828125 208.68078125 32 209.6875 C31.505 210.51636719 31.01 211.34523437 30.5 212.19921875 C28.68147183 214.3823997 27.77661322 214.62451494 25 215 C22.23783674 213.74892052 19.6922441 212.42798566 17.0625 210.9375 C9.14722947 206.61570869 1.13559156 202.53079958 -6.98147583 198.60427856 C-8.22469877 198.00235325 -9.4668247 197.39815582 -10.70773315 196.79147339 C-17.07559021 193.67940014 -23.40041716 190.80075932 -30.0703125 188.39453125 C-38.4388459 185.23253535 -41.76419757 180.18929753 -46.125 172.75 C-47.09560412 171.12507454 -48.06831244 169.50140438 -49.04296875 167.87890625 C-49.78039307 166.65131592 -49.78039307 166.65131592 -50.53271484 165.39892578 C-52.75065637 161.77272055 -55.09606579 158.23461391 -57.4375 154.6875 C-74.72506215 128.21251294 -89.37146096 100.84507025 -82.75 68.234375 C-82.5025 67.16703125 -82.255 66.0996875 -82 65 C-81.79375 63.70578125 -81.5875 62.4115625 -81.375 61.078125 C-80.42811874 56.75483694 -79.3127435 53.07907677 -76 50 C-69.3756942 46.84310427 -61.94640967 45.84812321 -54.77880859 44.55761719 C-49.48527676 43.49537622 -44.81338315 41.4253481 -40 39 C-39.07574219 38.55011719 -38.15148437 38.10023437 -37.19921875 37.63671875 C-21.23559609 29.44515028 -7.70565932 16.30192249 0 0 Z " fill="#49A9B0" transform="translate(126,43)"/>
<path d="M0 0 C22.25214556 -0.9805107 44.06640289 5.25404123 61.06396484 20.26782227 C66.93168177 25.64358899 72.6012628 31.3288034 77 38 C77 38.66 77 39.32 77 40 C74.95491949 41.63235452 72.81192371 43.08586413 70.65234375 44.5625 C66.69103506 48.20293686 63.95856109 52.52865321 61 57 C60.31107666 58.03962891 59.62215332 59.07925781 58.91235352 60.15039062 C56.70105848 63.50967184 54.50437123 66.87803795 52.3125 70.25 C51.18848019 71.97590491 50.06398111 73.70149636 48.93925476 75.42694092 C47.92654629 76.98103875 46.915016 78.53590415 45.90356445 80.09082031 C43.95269081 83.0723017 41.98051773 86.03815952 40 89 C31.15336144 87.60219432 22.62713751 85.35988963 14 83 C11.33725163 82.31529328 8.67047699 81.65399437 6 81 C5.85304687 80.10539062 5.70609375 79.21078125 5.5546875 78.2890625 C3.67885107 68.17679483 1.31801507 59.66302072 -7.4375 53.5625 C-14.97533646 48.91208524 -22.08595101 47.26162824 -30.75 45.9375 C-32.80833166 45.61995069 -34.86569096 45.2960144 -36.921875 44.96484375 C-37.82518555 44.8268335 -38.72849609 44.68882324 -39.65917969 44.54663086 C-42 44 -42 44 -45 42 C-43.96101563 41.443125 -42.92203125 40.88625 -41.8515625 40.3125 C-33.63088751 35.8423167 -25.97951508 31.30723254 -19 25 C-18.23300781 24.31421875 -17.46601562 23.6284375 -16.67578125 22.921875 C-9.73819335 16.37298048 -4.08523642 8.64263584 0 0 Z " fill="#29A8E0" transform="translate(126,43)"/>
<path d="M0 0 C0.96035156 -0.020625 1.92070313 -0.04125 2.91015625 -0.0625 C19.140378 -0.15058804 29.89323181 8.52622069 41.171875 19.26171875 C44.03926466 21.9764225 47.03676252 24.47467374 50.125 26.9375 C53.74430631 29.8648801 57.24513182 32.85997058 60.625 36.0625 C61.37265625 36.77019531 62.1203125 37.47789062 62.890625 38.20703125 C64.375 40.25 64.375 40.25 64.28515625 42.1875 C63.17533796 44.70245304 61.94858717 47.06185186 60.5625 49.4375 C60.06105469 50.31792969 59.55960937 51.19835937 59.04296875 52.10546875 C57.11688782 54.58185852 56.41337139 54.86792515 53.375 55.25 C50.61283674 53.99892052 48.0672441 52.67798566 45.4375 51.1875 C37.52222947 46.86570869 29.51059156 42.78079958 21.39352417 38.85427856 C20.15030123 38.25235325 18.9081753 37.64815582 17.66726685 37.04147339 C10.23318207 33.40831766 2.78243143 30.13537225 -4.99707031 27.31005859 C-11.84287646 24.54858607 -14.76232752 18.11878702 -18.46484375 12.08984375 C-19.625 9.25 -19.625 9.25 -18.9375 7.015625 C-13.54013901 -0.24511062 -8.45755087 0.04433841 0 0 Z " fill="#29A8E0" transform="translate(97.625,202.75)"/>
</svg>
