<?xml version="1.0" encoding="UTF-8"?>
<svg version="1.1" xmlns="http://www.w3.org/2000/svg" width="261" height="359">
<path d="M0 0 C1.03094439 0.85922873 2.05960183 1.72120897 3.0859375 2.5859375 C3.59608398 3.01100586 4.10623047 3.43607422 4.63183594 3.87402344 C30.55287626 25.71870485 46.05798027 57.99169784 48.9453125 91.58154297 C51.85073984 132.99397084 32.22322778 165.13786323 11.45294189 199.07946777 C7.83398039 204.99350929 4.23557766 210.91991853 0.64001465 216.84820557 C-1.12068465 219.7508616 -2.88261746 222.65276856 -4.64453125 225.5546875 C-4.99415924 226.13058624 -5.34378723 226.70648499 -5.70401001 227.29983521 C-7.87826445 230.8809418 -10.05368868 234.46133531 -12.22988892 238.04125977 C-22.10885507 254.2913109 -22.10885507 254.2913109 -31.9140625 270.5859375 C-38.87827605 282.21035039 -45.87110821 293.81681114 -52.94873047 305.37255859 C-54.18156442 307.3882804 -55.41038443 309.40646858 -56.63330078 311.42822266 C-58.08577586 313.82455743 -59.55811053 316.20713353 -61.0390625 318.5859375 C-61.43939697 319.25520264 -61.83973145 319.92446777 -62.25219727 320.61401367 C-65.21335604 325.28969017 -68.06608199 327.2132788 -72.9140625 329.5859375 C-73.5740625 329.9159375 -74.2340625 330.2459375 -74.9140625 330.5859375 C-82.16857935 331.266746 -89.02578699 331.32188382 -94.9140625 326.5859375 C-100.15233551 321.06426752 -103.77888113 314.46403078 -107.6640625 307.9609375 C-108.41548016 306.71191729 -109.16744392 305.46322547 -109.91992188 304.21484375 C-111.48062802 301.62463565 -113.03899038 299.03303962 -114.59570312 296.44042969 C-117.83273244 291.05337266 -121.09830511 285.68370511 -124.36364746 280.31378174 C-126.13180057 277.40531885 -127.89781618 274.49555859 -129.6640625 271.5859375 C-130.37238575 270.41926471 -131.08071908 269.25259804 -131.7890625 268.0859375 C-133.20572917 265.75260417 -134.62239583 263.41927083 -136.0390625 261.0859375 C-136.56496223 260.21975548 -136.56496223 260.21975548 -137.10148621 259.33607483 C-137.81008766 258.16895878 -138.51867529 257.00183434 -139.22724915 255.83470154 C-140.99386737 252.92484166 -142.76072239 250.01512608 -144.52807617 247.10571289 C-147.76614898 241.77466702 -151.00217022 236.44241667 -154.22982788 231.10505676 C-164.08180164 214.8058307 -164.08180164 214.8058307 -174.1640625 198.6484375 C-174.63682617 197.90102295 -175.10958984 197.1536084 -175.59667969 196.38354492 C-177.55656528 193.28868783 -179.51996936 190.19659455 -181.50634766 187.11865234 C-203.8342988 152.49741217 -217.6572511 116.83189553 -209.45751953 75.27197266 C-201.98017291 40.64345385 -181.36163215 11.24355407 -151.81445312 -8.22509766 C-105.4367697 -37.24094019 -42.6630771 -34.71850596 0 0 Z " fill="#FEFEFE" transform="translate(211.9140625,28.4140625)"/>
<path d="M0 0 C18.99230082 7.10087813 33.31409735 23.50625785 41.875 41.4375 C42.9848148 43.93378556 44.01148571 46.45347923 45 49 C45.65162109 50.66675781 45.65162109 50.66675781 46.31640625 52.3671875 C50.63248681 65.63123997 51.7620176 83.74254301 47 97 C45.31197266 96.93039063 45.31197266 96.93039063 43.58984375 96.859375 C26.9378088 96.10479295 26.9378088 96.10479295 12.23413086 102.52392578 C7.13880517 107.93146676 4.0403188 114.18524913 0.9375 120.875 C0.4209082 121.98198242 -0.09568359 123.08896484 -0.62792969 124.22949219 C-9.20087628 142.90607552 -15.71429922 161.1371654 -8.5625 181.5625 C-6.91207793 185.80306037 -6.91207793 185.80306037 -5.078125 189.96484375 C-4.94149653 193.52401529 -7.27148059 196.15269949 -9.1875 199 C-10.12049541 200.43619895 -11.05139082 201.87376373 -11.98046875 203.3125 C-12.47466309 204.07304687 -12.96885742 204.83359375 -13.47802734 205.6171875 C-16.07866499 209.68876648 -18.53256211 213.84685904 -21 218 C-24.83735316 224.41910406 -28.69312856 230.82575521 -32.625 237.1875 C-33.03878906 237.86490234 -33.45257813 238.54230469 -33.87890625 239.24023438 C-36.76695479 243.88347739 -36.76695479 243.88347739 -39 245 C-40.72680876 242.15584439 -42.4536165 239.31168815 -44.18041992 236.4675293 C-45.70529994 233.95595975 -47.23020526 231.44440557 -48.75512695 228.93286133 C-52.6444503 222.52710264 -56.53353543 216.12119965 -60.421875 209.71484375 C-63.94680288 203.90729982 -67.4727935 198.10040221 -70.99951172 192.29394531 C-72.29827858 190.1554339 -73.5967958 188.01677085 -74.89501953 185.87792969 C-81.10498913 175.64798779 -87.3326096 165.42950166 -93.625 155.25 C-94.15810791 154.38576416 -94.69121582 153.52152832 -95.24047852 152.63110352 C-97.82390399 148.45684635 -100.43762452 144.3087845 -103.12890625 140.203125 C-119.74832785 114.74986187 -131.21484263 88.82944937 -124.82421875 57.828125 C-122.13617545 48.60469681 -118.49011372 39.91222272 -113 32 C-111.02566741 32.97362473 -109.07774444 33.95517896 -107.17016602 35.05493164 C-100.01097586 38.82752894 -92.85806417 38.58062425 -84.9375 38.4375 C-83.9014563 38.4272731 -83.9014563 38.4272731 -82.84448242 38.4168396 C-72.64340509 38.31224275 -62.8807641 37.8150003 -53 35 C-51.74960938 34.64808594 -50.49921875 34.29617187 -49.2109375 33.93359375 C-30.23186788 28.24517563 -10.59691797 17.37894547 0 0 Z " fill="#4AAAB1" transform="translate(169,52)"/>
<path d="M0 0 C1.97433259 0.97362473 3.92225556 1.95517896 5.82983398 3.05493164 C12.99077918 6.82845378 20.14064617 6.57656695 28.0625 6.4375 C28.75020477 6.43201141 29.43790955 6.42652283 30.14645386 6.42086792 C40.41806017 6.33836686 50.03380584 5.50779071 60 3 C65.47372343 1.68657306 65.47372343 1.68657306 67.7578125 3.046875 C76.13863939 13.48699078 77.90201154 25.9631144 77 39 C75.3218522 49.86301029 67.24829792 57.33450353 60 65 C59.51015625 65.5269043 59.0203125 66.05380859 58.515625 66.59667969 C46.7243965 79.22422425 33.73549755 87.16037482 18.41992188 94.77978516 C16.84013334 95.57637345 15.27269546 96.3980855 13.72070312 97.24755859 C8.56449798 100.02957215 8.56449798 100.02957215 5.95410156 99.89282227 C3.17529415 98.62319474 2.52678049 97.01784081 1.125 94.328125 C0.61622314 93.3592334 0.10744629 92.3903418 -0.41674805 91.39208984 C-0.93922119 90.3552002 -1.46169434 89.31831055 -2 88.25 C-2.5360083 87.20408691 -3.0720166 86.15817383 -3.62426758 85.08056641 C-7.24147123 77.87963622 -10.2751701 70.90241218 -12 63 C-12.17289551 62.22809326 -12.34579102 61.45618652 -12.52392578 60.66088867 C-16.24573608 39.85883203 -12.04193135 17.35454812 0 0 Z " fill="#263A79" transform="translate(56,84)"/>
<path d="M0 0 C12.73834118 4.76263561 24.82281614 14.44524301 32 26 C31.35933594 26.35191406 30.71867187 26.70382813 30.05859375 27.06640625 C21.08990081 32.18564529 15.62688229 37.86227495 9.859375 46.34765625 C2.62845823 56.66234634 -6.08524874 67.08524874 -15 76 C-22.25303549 75.94030423 -29.10522389 74.08416236 -36 72 C-36.03738281 71.05640625 -36.07476562 70.1128125 -36.11328125 69.140625 C-36.71578953 57.37399268 -37.86301464 46.77507895 -45 37 C-45.66 36.01 -46.32 35.02 -47 34 C-46.34515625 33.70867187 -45.6903125 33.41734375 -45.015625 33.1171875 C-42.00162855 31.76344333 -39.00069635 30.38296152 -36 29 C-34.54207031 28.34837891 -34.54207031 28.34837891 -33.0546875 27.68359375 C-20.0951898 21.61854883 -7.53044366 12.34992761 0 0 Z " fill="#29A9E0" transform="translate(169,52)"/>
<path d="M0 0 C7.43859338 1.79512633 14.14630653 4.17395681 21 7.5625 C21.90443848 8.00231201 22.80887695 8.44212402 23.74072266 8.89526367 C32.93452833 13.39751731 42.00840815 18.1075905 51 23 C52.0007959 23.54156738 53.0015918 24.08313477 54.03271484 24.64111328 C57.2172381 26.37171616 60.39114995 28.12038988 63.5625 29.875 C64.56909668 30.42260986 65.57569336 30.97021973 66.61279297 31.53442383 C67.54623535 32.05673584 68.47967773 32.57904785 69.44140625 33.1171875 C70.27357666 33.57722168 71.10574707 34.03725586 71.96313477 34.51123047 C74.30991422 36.22652007 75.28393704 37.16980052 76 40 C75.00878906 42.49511719 75.00878906 42.49511719 73.265625 45.296875 C72.63293701 46.33134766 72.00024902 47.36582031 71.34838867 48.43164062 C70.65592041 49.52669922 69.96345215 50.62175781 69.25 51.75 C68.56075439 52.86568359 67.87150879 53.98136719 67.16137695 55.13085938 C65.77092992 57.37735252 64.37359888 59.61960023 62.96923828 61.85742188 C61.23968466 64.61750298 59.53312549 67.38946114 57.83984375 70.171875 C56.95643049 71.61501288 56.0723739 73.05775726 55.1875 74.5 C54.7862793 75.15709961 54.38505859 75.81419922 53.97167969 76.49121094 C51.23269359 80.8836532 51.23269359 80.8836532 49 82 C47.27319124 79.15584439 45.5463835 76.31168815 43.81958008 73.4675293 C42.29470006 70.95595975 40.76979474 68.44440557 39.24487305 65.93286133 C35.71583074 60.12048952 32.18684024 54.30808644 28.65870667 48.49516296 C27.58300746 46.72288789 26.50720461 44.95067576 25.43139648 43.1784668 C24.02159109 40.85599343 22.61231168 38.533202 21.20336914 36.21020508 C17.76590517 30.5442872 14.31949574 24.88408702 10.85546875 19.234375 C10.20473389 18.17130127 9.55399902 17.10822754 8.88354492 16.01293945 C7.65839087 14.01251617 6.43081717 12.0135721 5.20043945 10.01635742 C4.38965942 8.69148315 4.38965942 8.69148315 3.5625 7.33984375 C2.85287109 6.18536743 2.85287109 6.18536743 2.12890625 5.00756836 C1 3 1 3 0 0 Z " fill="#273B7A" transform="translate(81,215)"/>
<path d="M0 0 C2.60901238 2.26998817 5.18244645 4.56775813 7.7265625 6.91015625 C9.84630212 8.85871415 12.00483469 10.74757333 14.1875 12.625 C17.4359418 15.44601525 20.4726155 18.42169353 23.45703125 21.51953125 C25.13707372 23.21835505 25.13707372 23.21835505 28 25 C28.97758648 29.88793239 26.40320529 32.95024217 24 37 C23.19820313 36.53851563 22.39640625 36.07703125 21.5703125 35.6015625 C17.71869013 33.39190159 13.86062342 31.193883 10 29 C9.35240723 28.63084473 8.70481445 28.26168945 8.03759766 27.88134766 C-21.89188893 10.511891 -21.89188893 10.511891 -54 -2 C-54.640625 -4.828125 -54.640625 -4.828125 -55 -8 C-51.1376172 -12.72069009 -47.06586168 -13.94178042 -41.125 -14.78125 C-24.08270051 -15.97421096 -12.63177923 -10.78596651 0 0 Z " fill="#29A8DF" transform="translate(134,217)"/>
</svg>
