<?xml version="1.0" encoding="UTF-8"?>
<svg version="1.1" xmlns="http://www.w3.org/2000/svg" width="259" height="380">
<path d="M0 0 C2.08143963 1.7927883 4.13602889 3.60997655 6.1875 5.4375 C6.85523438 6.03175781 7.52296875 6.62601563 8.2109375 7.23828125 C31.38818319 29.1641733 44.32090486 62.59597081 45.37109375 94.0625 C45.66474894 108.44866759 44.04769874 122.20381462 41 136.25 C40.82831299 137.06573486 40.65662598 137.88146973 40.47973633 138.72192383 C36.14425377 157.5958331 27.99550086 175.47402314 20.375 193.1875 C19.35075769 195.57980299 18.32658879 197.97213742 17.30249023 200.36450195 C8.85154653 220.06294506 0.14759345 239.64011928 -8.76104736 259.13531494 C-9.82265749 261.4597401 -10.88213226 263.78512691 -11.94091797 266.11083984 C-15.63484504 274.22412089 -19.34209325 282.33105733 -23.06587219 290.43067932 C-24.85735557 294.33403612 -26.62768224 298.24595039 -28.37539673 302.1690979 C-29.17938677 303.97209802 -29.98929337 305.77245612 -30.79931641 307.57275391 C-31.76216761 309.7137696 -32.71599821 311.85888194 -33.65771484 314.00927734 C-40.09972462 328.24407959 -49.25747502 339.32322946 -63.91015625 345.40625 C-81.95353065 351.81735477 -99.88537189 350.70321894 -117.1875 342.75 C-131.14555995 335.1743908 -138.55033777 323.25844522 -144.625 309 C-145.07746094 307.95400635 -145.52992188 306.9080127 -145.99609375 305.83032227 C-159.83979764 273.55628157 -172.73566771 240.86646873 -185.55810547 208.17675781 C-187.02969777 204.42606827 -188.50773879 200.67804307 -189.99267578 196.93261719 C-209.72769199 147.13471202 -223.8794336 97.32358401 -203.125 45.4375 C-197.1089981 31.94753655 -188.74332475 20.29246354 -178.8125 9.4375 C-177.70455078 8.22320312 -177.70455078 8.22320312 -176.57421875 6.984375 C-129.9161739 -41.80612162 -50.5978906 -42.61065216 0 0 Z " fill="#10D2B3" transform="translate(213.8125,30.5625)"/>
<path d="M0 0 C1.07185547 -0.00128906 2.14371094 -0.00257812 3.24804688 -0.00390625 C4.37146484 -0.00003906 5.49488281 0.00382812 6.65234375 0.0078125 C7.77962891 0.00394531 8.90691406 0.00007813 10.06835938 -0.00390625 C11.13892578 -0.00261719 12.20949219 -0.00132813 13.3125 0 C14.79375366 0.00169189 14.79375366 0.00169189 16.30493164 0.00341797 C18.58984375 0.1328125 18.58984375 0.1328125 19.58984375 1.1328125 C19.91227085 2.68925603 20.19783793 4.25340995 20.46484375 5.8203125 C21.89414445 12.99744387 24.05397011 17.7271827 30.1484375 21.9921875 C35.52149938 24.50248201 41.45981827 24.12440457 47.03125 22.359375 C50.79386178 20.62704913 53.485744 18.81498707 55.58984375 15.1328125 C63.88514735 16.72595028 70.57130451 24.64368181 76.58984375 30.1328125 C75.76116512 34.12946049 73.88255228 36.76539684 71.58984375 40.1328125 C69.79838805 45.50717959 69.87807747 50.20075816 72.21484375 55.3203125 C75.28665097 60.84522372 79.55812211 64.15751184 85.58984375 66.1328125 C88.48636204 66.37252339 88.48636204 66.37252339 91.40234375 66.2578125 C92.86607422 66.23074219 92.86607422 66.23074219 94.359375 66.203125 C95.09542969 66.17992188 95.83148438 66.15671875 96.58984375 66.1328125 C99.75171614 74.94088558 100.90452098 82.77990588 100.58984375 92.1328125 C99.86539063 92.34035156 99.1409375 92.54789062 98.39453125 92.76171875 C90.37008094 95.31884358 86.2551721 98.28676095 82.21484375 105.6328125 C80.54680895 112.30495171 81.86804719 116.89431094 85.01171875 122.8203125 C87.37945306 126.28986376 89.99011376 128.01532427 93.58984375 130.1328125 C91.26925929 138.718975 86.5796103 146.61453714 80.58984375 153.1328125 C80.03296875 152.91625 79.47609375 152.6996875 78.90234375 152.4765625 C72.09495388 149.99278511 66.99416808 149.03650467 59.90234375 151.3203125 C55.29907556 153.83908189 52.48158639 156.79519853 49.58984375 161.1328125 C49.30912823 164.20004397 49.30912823 164.20004397 49.40234375 167.5703125 C49.40878906 168.70339844 49.41523438 169.83648437 49.421875 171.00390625 C49.55954956 173.56849511 49.84062269 175.69334874 50.58984375 178.1328125 C42.80829643 182.41881148 33.64086686 187.1328125 24.58984375 187.1328125 C24.19796875 186.0809375 23.80609375 185.0290625 23.40234375 183.9453125 C21.19847349 178.87128562 18.17666326 176.01776953 13.33984375 173.3203125 C8.12374484 171.66854785 3.54083744 170.86586645 -1.62109375 173.08203125 C-7.19832003 176.36824079 -10.58774872 180.32847005 -13.41015625 186.1328125 C-22.65389529 185.96774573 -30.19216244 181.99476542 -38.41015625 178.1328125 C-38.17619141 176.79669922 -38.17619141 176.79669922 -37.9375 175.43359375 C-36.84804377 168.61440475 -36.25000509 163.26341384 -40.03515625 157.1953125 C-42.82580922 153.54748437 -44.86538963 151.37229431 -49.41015625 150.1328125 C-56.19057081 149.6132405 -62.00025466 149.70979247 -68.41015625 152.1328125 C-74.07220361 145.45450023 -77.68401856 137.98195461 -81.41015625 130.1328125 C-80.64058594 129.53339844 -79.87101562 128.93398437 -79.078125 128.31640625 C-74.67837358 124.71543839 -70.87485564 120.72530108 -69.41015625 115.1328125 C-68.78347019 108.76150422 -69.80587414 104.45624232 -73.41015625 99.1328125 C-77.33207949 94.98677936 -82.05962501 93.67152737 -87.41015625 92.1328125 C-87.85917185 83.05271929 -86.59857708 74.93860107 -84.41015625 66.1328125 C-81.5276875 65.29740673 -79.77084427 65.1647781 -76.66015625 65.3203125 C-71.20726369 65.37108431 -66.74595224 63.39922841 -62.83203125 59.6015625 C-58.36635813 54.36594574 -58.07689648 50.90804293 -58.1171875 44.1875 C-58.53365849 39.8450958 -59.87118311 37.64256949 -62.41015625 34.1328125 C-63.07015625 33.1428125 -63.73015625 32.1528125 -64.41015625 31.1328125 C-58.33581356 24.65351363 -51.95927502 18.86875539 -44.41015625 14.1328125 C-43.75015625 14.1328125 -43.09015625 14.1328125 -42.41015625 14.1328125 C-41.68828125 15.0609375 -40.96640625 15.9890625 -40.22265625 16.9453125 C-36.88465276 21.04989237 -33.29754983 22.65876281 -28.0546875 23.51953125 C-21.92957887 23.94686441 -18.11818694 22.46095493 -13.2578125 18.7578125 C-8.93420252 14.95522951 -8.30287999 11.98278709 -7.84765625 6.3828125 C-7.80511719 5.41859375 -7.76257813 4.454375 -7.71875 3.4609375 C-7.61691406 2.69265625 -7.51507813 1.924375 -7.41015625 1.1328125 C-4.81461791 -0.16495667 -2.90310098 0.00331215 0 0 Z " fill="#FEFEFE" transform="translate(122.41015625,39.8671875)"/>
<path d="M0 0 C0.845625 0.144375 1.69125 0.28875 2.5625 0.4375 C4.72790824 3.6012005 6.32921422 6.94538259 7.875 10.4453125 C8.30562744 11.41936035 8.73625488 12.3934082 9.17993164 13.39697266 C9.6361792 14.44159668 10.09242676 15.4862207 10.5625 16.5625 C11.03872803 17.64966309 11.51495605 18.73682617 12.00561523 19.85693359 C15.64515993 28.21864594 19.16934098 36.62342908 22.625 45.0625 C23.08970703 46.19316895 23.55441406 47.32383789 24.03320312 48.48876953 C28.89788492 60.47157227 32.26635832 72.70843838 28.6875 85.5859375 C24.28297377 95.00351004 17.07730935 100.40735612 7.875 104.6875 C-1.02456925 106.70249681 -9.51592173 106.11211557 -17.4375 101.4375 C-24.83023314 96.22037354 -30.26510164 90.36605726 -32.4375 81.4375 C-32.83142698 78.64202531 -32.9960199 75.88378895 -33.0625 73.0625 C-33.08586426 72.40378906 -33.10922852 71.74507813 -33.13330078 71.06640625 C-32.94532872 59.05932919 -25.72389458 47.44473713 -20.6875 36.8125 C-20.06770624 35.49657353 -19.44824357 34.18049106 -18.82910156 32.86425781 C-17.60461547 30.26285597 -16.3775189 27.66271015 -15.1484375 25.06347656 C-13.61881077 21.82623561 -12.10398079 18.58227898 -10.59375 15.3359375 C-9.79182494 13.6197177 -8.98975478 11.90356569 -8.1875 10.1875 C-7.82946289 9.4145459 -7.47142578 8.6415918 -7.10253906 7.84521484 C-3.7259717 0.66876415 -3.7259717 0.66876415 0 0 Z " fill="#46799C" transform="translate(128.4375,241.5625)"/>
</svg>
